HIERARCHY
ROOT joint_Root
{
	OFFSET 0.0 0.0 0.0
	CHANNELS 6 Xposition Yposition Zposition Zrotation Xrotation Yrotation 
	JOINT Hips
	{
		OFFSET -0.726466 93.3139 -2.00062
		CHANNELS 6 Xposition Yposition Zposition Zrotation Xrotation Yrotation 
		JOINT Spine
		{
			OFFSET 15.7357 0.0 0.0
			CHANNELS 6 Xposition Yposition Zposition Zrotation Xrotation Yrotation 
			JOINT Chest
			{
				OFFSET 8.98455 -0.406207 0.0
				CHANNELS 6 Xposition Yposition Zposition Zrotation Xrotation Yrotation 
				JOINT Neck
				{
					OFFSET 16.3773 0.0 0.0
					CHANNELS 6 Xposition Yposition Zposition Zrotation Xrotation Yrotation 
					JOINT Head
					{
						OFFSET 6.45672 0.0 0.0
						CHANNELS 6 Xposition Yposition Zposition Zrotation Xrotation Yrotation 
						End Site
						{
							OFFSET 0.0 0.0 0.0
						}
					}
				}
				JOINT Shoulder_L
				{
					OFFSET 12.9942 -0.242716 4.98039
					CHANNELS 6 Xposition Yposition Zposition Zrotation Xrotation Yrotation 
					JOINT UpperArm_L
					{
						OFFSET 5.34809 0.0 0.0
						CHANNELS 6 Xposition Yposition Zposition Zrotation Xrotation Yrotation 
						JOINT LowerArm_L
						{
							OFFSET 24.3286 1.87007e-05 0.0
							CHANNELS 6 Xposition Yposition Zposition Zrotation Xrotation Yrotation 
							JOINT Hand_L
							{
								OFFSET 22.2916 0.0 0.0
								CHANNELS 6 Xposition Yposition Zposition Zrotation Xrotation Yrotation 
								End Site
								{
									OFFSET 0.0 0.0 0.0
								}
							}
						}
					}
				}
				JOINT Shoulder_R
				{
					OFFSET 12.9945 -0.242716 -4.98039
					CHANNELS 6 Xposition Yposition Zposition Zrotation Xrotation Yrotation 
					JOINT UpperArm_R
					{
						OFFSET -5.34813 0.0 0.0
						CHANNELS 6 Xposition Yposition Zposition Zrotation Xrotation Yrotation 
						JOINT LowerArm_R
						{
							OFFSET -24.3289 0.000322201 0.0
							CHANNELS 6 Xposition Yposition Zposition Zrotation Xrotation Yrotation 
							JOINT Hand_R
							{
								OFFSET -22.2915 -0.000108084 0.0
								CHANNELS 6 Xposition Yposition Zposition Zrotation Xrotation Yrotation 
								End Site
								{
									OFFSET 0.0 0.0 0.0
								}
							}
						}
					}
				}
			}
		}
		JOINT UpperLeg_L
		{
			OFFSET -2.19248 -6.46944 0.0
			CHANNELS 6 Xposition Yposition Zposition Zrotation Xrotation Yrotation 
			JOINT LowerLeg_L
			{
				OFFSET 39.0811 0.0 -1.23785e-05
				CHANNELS 6 Xposition Yposition Zposition Zrotation Xrotation Yrotation 
				JOINT Foot_L
				{
					OFFSET 40.9854 0.0 -1.26872e-05
					CHANNELS 6 Xposition Yposition Zposition Zrotation Xrotation Yrotation 
					JOINT Toes_L
					{
						OFFSET 11.7543 0.0 0.0
						CHANNELS 6 Xposition Yposition Zposition Zrotation Xrotation Yrotation 
						End Site
						{
							OFFSET 0.0 0.0 0.0
						}
					}
				}
			}
		}
		JOINT UpperLeg_R
		{
			OFFSET -2.19251 6.46944 0.0
			CHANNELS 6 Xposition Yposition Zposition Zrotation Xrotation Yrotation 
			JOINT LowerLeg_R
			{
				OFFSET -39.0811 -0.00228153 -0.0401928
				CHANNELS 6 Xposition Yposition Zposition Zrotation Xrotation Yrotation 
				JOINT Foot_R
				{
					OFFSET -40.9854 0.0 0.0
					CHANNELS 6 Xposition Yposition Zposition Zrotation Xrotation Yrotation 
					JOINT Toes_R
					{
						OFFSET -11.7543 0.0 0.0
						CHANNELS 6 Xposition Yposition Zposition Zrotation Xrotation Yrotation 
						End Site
						{
							OFFSET 0.0 0.0 0.0
						}
					}
				}
			}
		}
	}
}
MOTION
Frames:	6
Frame Time:	0.0333333
0.000000 0.000000 0.000000 0.000000 0.000000 -0.000000 -81.874200 89.192600 199.559000 9.629570 84.698500 87.098700 15.735700 0.000005 -0.000001 79.317900 82.903900 -76.650400 8.984550 -0.406207 -0.000000 6.252960 -2.658300 5.475220 16.377300 -0.000001 -0.000001 1.863240 -2.080860 0.244691 6.456720 -0.000001 -0.000000 2.345380 0.047820 1.442700 12.994200 -0.242716 4.980390 -89.608200 -1.301680 -73.247500 5.348090 -0.000007 -0.000001 -71.580800 34.538400 -17.872700 24.328600 0.000019 0.000005 1.266840 3.242810 -21.388000 22.291600 -0.000001 0.000005 6.038940 5.468270 -5.294180 12.994500 -0.242716 -4.980390 87.765600 6.627190 -71.320600 -5.348130 -0.000001 -0.000004 -67.123200 28.258200 -13.486400 -24.328900 0.000322 -0.000009 2.094650 9.521940 -12.473100 -22.291500 -0.000108 -0.000004 8.886570 5.369170 -1.960150 -2.192480 -6.469440 -0.000000 -170.653000 -4.435170 -8.494780 39.081100 -0.000007 -0.000012 0.010255 -0.003657 70.344200 40.985400 -0.000006 -0.000013 -2.436420 0.529425 -39.800800 11.754300 -0.000000 0.000003 -0.008038 -0.088352 -20.174600 -2.192510 6.469440 -0.000001 -168.300000 14.144900 165.001000 -39.081100 -0.002282 -0.040193 0.072808 -0.102894 34.042600 -40.985400 0.000008 0.000006 11.590400 -6.077270 -63.991300 -11.754300 -0.000006 -0.000006 -0.015075 -0.138286 -22.215300
0.000000 0.000000 0.000000 0.000000 0.000000 -0.000000 -78.514000 89.951100 199.586000 39.838100 84.962000 57.131000 15.735700 0.000005 -0.000001 85.376500 82.921500 -83.426100 8.984550 -0.406207 -0.000000 6.368690 -1.161540 3.961170 16.377300 -0.000001 -0.000001 2.238150 -1.460370 0.738226 6.456720 -0.000001 -0.000000 2.608190 -0.285024 2.100830 12.994200 -0.242716 4.980390 -89.398700 -1.906260 -72.489600 5.348090 -0.000007 -0.000001 -73.974800 34.063900 -14.689800 24.328600 0.000019 0.000005 2.669330 8.643960 -17.241400 22.291600 -0.000001 0.000005 3.518820 5.408890 -3.216060 12.994500 -0.242716 -4.980390 87.899300 6.625890 -72.365400 -5.348130 -0.000001 -0.000004 -66.038000 29.881700 -17.438100 -24.328900 0.000322 -0.000009 2.328700 9.639780 -13.655900 -22.291500 -0.000108 -0.000004 9.917380 5.378280 -2.244330 -2.192480 -6.469440 -0.000000 -172.686000 -5.827090 -12.681700 39.081100 -0.000007 -0.000012 -0.036011 0.011345 72.522100 40.985400 -0.000006 -0.000013 1.422750 -3.646070 -43.395300 11.754300 -0.000000 0.000003 -0.007463 -0.083598 -19.980500 -2.192510 6.469440 -0.000001 -170.232000 13.623500 169.126000 -39.081100 -0.002282 -0.040193 0.107548 -0.167410 31.911600 -40.985400 0.000008 0.000006 11.997100 -4.551470 -65.569700 -11.754300 -0.000006 -0.000006 -0.014890 -0.137122 -22.167500
0.000000 0.000000 0.000000 0.000000 0.000000 -0.000000 -75.279600 90.683800 199.574000 63.512100 83.837500 33.428900 15.735700 0.000005 -0.000001 90.217200 82.955800 -88.872500 8.984550 -0.406207 -0.000000 6.323260 0.036355 2.684400 16.377300 -0.000001 -0.000001 2.650930 -0.516534 1.020980 6.456720 -0.000001 -0.000000 2.920510 -0.307673 1.898260 12.994200 -0.242716 4.980390 -89.161800 -2.524380 -71.624600 5.348090 -0.000007 -0.000001 -76.564700 31.487200 -10.496700 24.328600 0.000019 0.000005 3.337320 12.511900 -15.066100 22.291600 -0.000001 0.000005 1.910590 5.366870 -1.887870 12.994500 -0.242716 -4.980390 88.245100 5.914350 -73.441100 -5.348130 -0.000001 -0.000004 -65.452800 31.129400 -21.638900 -24.328900 0.000322 -0.000009 2.388260 9.040250 -14.872300 -22.291500 -0.000108 -0.000004 10.127800 5.379930 -2.296300 -2.192480 -6.469440 -0.000000 -174.277000 -6.919150 -16.364800 39.081100 -0.000007 -0.000012 -0.045853 0.015555 71.267800 40.985400 -0.000006 -0.000013 2.519730 -6.733280 -45.873800 11.754300 -0.000000 0.000003 -0.007988 -0.087947 -20.158100 -2.192510 6.469440 -0.000001 -172.140000 13.414100 173.058000 -39.081100 -0.002282 -0.040193 0.099714 -0.172518 29.198300 -40.985400 0.000008 0.000006 11.796200 -2.360010 -66.528200 -11.754300 -0.000006 -0.000006 -0.014337 -0.133604 -22.023100
0.000000 0.000000 0.000000 0.000000 0.000000 -0.000000 -72.136900 91.258200 199.548000 77.699300 81.985200 19.051600 15.735700 0.000005 -0.000001 94.792900 83.018200 -93.979300 8.984550 -0.406207 -0.000000 6.142100 1.151970 1.563580 16.377300 -0.000001 -0.000001 2.924270 0.320904 0.963759 6.456720 -0.000001 -0.000000 3.198560 0.096187 1.241290 12.994200 -0.242716 4.980390 -89.052100 -2.728700 -70.835300 5.348090 -0.000007 -0.000001 -77.968300 28.375000 -6.242040 24.328600 0.000019 0.000005 2.948450 12.003400 -13.909100 22.291600 -0.000001 0.000005 1.409780 5.347220 -1.294110 12.994500 -0.242716 -4.980390 88.544000 5.121620 -74.107900 -5.348130 -0.000001 -0.000004 -64.449800 32.364400 -25.972700 -24.328900 0.000322 -0.000009 2.347850 7.899550 -16.619800 -22.291500 -0.000108 -0.000004 9.630940 5.384670 -2.446030 -2.192480 -6.469440 -0.000000 -175.647000 -7.663650 -18.993500 39.081100 -0.000007 -0.000012 -0.042577 0.018271 66.780400 40.985400 -0.000006 -0.000013 4.071070 -6.834380 -48.966000 11.754300 -0.000000 0.000003 -0.005942 -0.070318 -19.438600 -2.192510 6.469440 -0.000001 -174.155000 13.741000 176.773000 -39.081100 -0.002282 -0.040193 0.081126 -0.157306 26.320900 -40.985400 0.000008 0.000006 11.668900 0.339580 -67.540900 -11.754300 -0.000006 -0.000006 -0.013891 -0.130717 -21.904700
0.000000 0.000000 0.000000 0.000000 0.000000 -0.000000 -69.070100 91.633700 199.521000 84.146200 79.929500 12.195100 15.735700 0.000005 -0.000001 98.630800 83.053600 -98.190800 8.984550 -0.406207 -0.000000 5.964600 2.072400 0.771032 16.377300 -0.000001 -0.000001 2.943500 1.227660 0.648400 6.456720 -0.000001 -0.000000 3.167550 0.637316 0.559404 12.994200 -0.242716 4.980390 -89.113400 -2.431140 -69.955500 5.348090 -0.000007 -0.000001 -78.075200 25.516400 -2.490080 24.328600 0.000019 0.000005 2.351100 9.721180 -13.666100 22.291600 -0.000001 0.000005 1.988570 5.350670 -1.395430 12.994500 -0.242716 -4.980390 88.725100 4.678160 -74.737500 -5.348130 -0.000001 -0.000004 -62.335500 33.654300 -30.352700 -24.328900 0.000322 -0.000009 2.308940 6.559230 -19.452700 -22.291500 -0.000108 -0.000004 9.404210 5.392310 -2.689230 -2.192480 -6.469440 -0.000000 -176.305000 -8.096550 -20.547800 39.081100 -0.000007 -0.000012 -0.019160 0.011514 59.006900 40.985400 -0.000006 -0.000013 4.352570 -5.641840 -51.310200 11.754300 -0.000000 0.000003 -0.006658 -0.076706 -19.699200 -2.192510 6.469440 -0.000001 -175.856000 13.846100 -179.906000 -39.081100 -0.002282 -0.040193 0.060381 -0.131232 23.501900 -40.985400 0.000008 0.000006 11.524100 2.800470 -68.444300 -11.754300 -0.000006 -0.000006 -0.013470 -0.127956 -21.791500
0.000000 0.000000 0.000000 0.000000 0.000000 -0.000000 -66.118200 91.758500 199.513000 85.813400 78.235300 9.982220 15.735700 0.000005 -0.000001 101.382000 83.059500 -101.121000 8.984550 -0.406207 -0.000000 5.840990 2.728100 0.382374 16.377300 -0.000001 -0.000001 2.707430 2.042780 0.277014 6.456720 -0.000001 -0.000000 2.915040 1.271060 -0.025930 12.994200 -0.242716 4.980390 -89.232600 -2.009610 -69.092500 5.348090 -0.000007 -0.000001 -77.550100 23.569000 0.460775 24.328600 0.000019 0.000005 2.034800 8.299180 -13.827800 22.291600 -0.000001 0.000005 3.393230 5.364730 -1.823280 12.994500 -0.242716 -4.980390 88.810400 4.536390 -75.289100 -5.348130 -0.000001 -0.000004 -59.514600 34.527300 -34.346800 -24.328900 0.000322 -0.000009 2.301310 5.334100 -23.391900 -22.291500 -0.000108 -0.000004 9.652940 5.404710 -3.090400 -2.192480 -6.469440 -0.000000 -176.236000 -8.109130 -20.908200 39.081100 -0.000007 -0.000012 -0.001536 0.001381 48.109100 40.985400 -0.000006 -0.000013 4.146740 -4.323500 -52.976700 11.754300 -0.000000 0.000003 -0.006321 -0.073730 -19.577700 -2.192510 6.469440 -0.000001 -177.101000 14.237800 -177.087000 -39.081100 -0.002282 -0.040193 0.042681 -0.101561 21.184900 -40.985400 0.000008 0.000006 11.531600 4.999890 -69.418800 -11.754300 -0.000006 -0.000006 -0.012414 -0.120867 -21.500900
